<svg xmlns="http://www.w3.org/2000/svg" width="492" height="236" fill="none" viewBox="0 0 492 236"><g clip-path="url(#clip0)"><path fill="url(#paint0_linear)" d="M112.483 22C122.491 4.66669 147.509 4.66667 157.517 22L255.378 191.5C265.385 208.833 252.876 230.5 232.861 230.5H37.1392C17.1243 230.5 4.61506 208.833 14.6225 191.5L112.483 22Z"/><path fill="#54575D" d="M194.512 165.664C195.824 166.539 196.48 167.796 196.48 169.436C196.48 172.279 195.223 175.067 192.708 177.8C190.303 180.533 187.187 182.775 183.36 184.524C179.643 186.164 175.98 186.984 172.372 186.984C166.687 186.984 162.313 184.907 159.252 180.752C156.3 176.488 154.441 172.825 153.676 169.764C153.02 166.593 152.091 160.963 150.888 152.872C150.56 150.576 149.959 149.1 149.084 148.444C148.209 147.679 146.515 147.296 144 147.296L116.284 147.46C107.319 162.001 99.228 172.388 92.012 178.62C84.796 184.743 77.1427 187.804 69.052 187.804C64.0227 187.804 60.196 186.82 57.572 184.852C54.948 182.884 53.636 180.315 53.636 177.144C53.636 174.629 54.456 172.388 56.096 170.42C57.736 168.452 60.032 167.085 62.984 166.32C62.984 170.693 63.5853 173.645 64.788 175.176C66.1 176.597 68.1773 177.308 71.02 177.308C76.4867 177.308 81.7893 175.176 86.928 170.912C92.176 166.539 98.736 158.667 106.608 147.296C104.093 147.077 102.289 146.64 101.196 145.984C100.212 145.328 99.72 144.344 99.72 143.032C99.72 142.048 99.9933 140.736 100.54 139.096C101.087 137.347 101.633 136.253 102.18 135.816C103.929 136.472 107.483 137.183 112.84 137.948C118.963 128.655 125.632 118.104 132.848 106.296C140.064 94.488 144.437 87.3267 145.968 84.812C148.045 81.4227 150.997 76.5573 154.824 70.216C156.136 68.248 157.284 66.8267 158.268 65.952C159.361 65.0773 160.728 64.64 162.368 64.64C163.789 64.64 165.484 64.9133 167.452 65.46C166.249 67.428 165.32 70.2707 164.664 73.988C164.117 77.7053 163.789 81.696 163.68 85.96L163.516 92.684C163.516 98.3693 163.625 105.039 163.844 112.692C164.172 120.236 164.5 126.413 164.828 131.224C165.484 140.845 166.249 148.608 167.124 154.512C167.999 160.307 169.475 165.172 171.552 169.108C173.739 172.935 176.745 174.848 180.572 174.848C183.087 174.848 185.547 174.028 187.952 172.388C190.357 170.639 192.544 168.397 194.512 165.664ZM138.26 139.588C141.321 139.588 145.148 139.479 149.74 139.26L149.576 113.512C149.576 104.328 149.959 96.7293 150.724 90.716C140.665 106.788 134.597 116.628 132.52 120.236L121.532 138.768C127.764 139.315 133.34 139.588 138.26 139.588ZM355.831 196.65C357.931 196.65 359.581 197.45 360.781 199.05C361.981 200.65 362.581 202.8 362.581 205.5C362.581 210.2 360.781 214.3 357.181 217.8C353.681 221.4 348.981 224.15 343.081 226.05C337.281 227.95 331.081 228.9 324.481 228.9C316.081 228.9 307.481 227.4 298.681 224.4C289.981 221.4 281.781 217.75 274.081 213.45C266.481 209.25 256.881 203.55 245.281 196.35C237.981 191.75 231.981 188.05 227.281 185.25C224.081 183.35 221.581 182.4 219.781 182.4C218.481 182.4 217.231 182.75 216.031 183.45C214.931 184.15 213.331 185.45 211.231 187.35C209.831 187.35 207.981 186.75 205.681 185.55C203.481 184.25 202.381 183.3 202.381 182.7C212.481 174.7 220.931 167.45 227.731 160.95C234.631 154.35 241.181 147.25 247.381 139.65C241.581 143.45 235.481 145.35 229.081 145.35C223.881 145.35 219.981 144.15 217.381 141.75C214.781 139.25 213.481 136.2 213.481 132.6C213.481 129.5 214.431 127.1 216.331 125.4C218.331 123.7 220.781 122.85 223.681 122.85C226.181 122.85 228.231 123.45 229.831 124.65C229.231 125.55 228.731 126.65 228.331 127.95C227.931 129.25 227.731 130.5 227.731 131.7C227.731 135.7 230.281 137.7 235.381 137.7C242.881 137.7 250.581 133.1 258.481 123.9C260.081 123.9 261.731 124.55 263.431 125.85C265.231 127.05 266.131 128.4 266.131 129.9C266.131 131.1 265.431 132.55 264.031 134.25C251.631 150.05 239.781 163.15 228.481 173.55C242.581 182.85 255.031 190.6 265.831 196.8C276.631 203 287.131 208.05 297.331 211.95C307.631 215.85 317.031 217.8 325.531 217.8C333.731 217.8 340.231 215.95 345.031 212.25C349.831 208.65 353.431 203.45 355.831 196.65ZM292.19 187.05C287.59 187.05 283.94 185.85 281.24 183.45C278.54 180.95 277.19 177 277.19 171.6C277.19 170.3 277.24 169.3 277.34 168.6L282.14 145.8C284.14 135.6 285.44 129.35 286.04 127.05C286.54 125.85 287.49 124.9 288.89 124.2C290.29 123.4 291.89 123 293.69 123C295.29 123 296.59 123.35 297.59 124.05C298.69 124.65 299.29 125.35 299.39 126.15C297.29 135.45 294.44 149.2 290.84 167.4C290.74 168.2 290.69 169.25 290.69 170.55C290.69 173.35 291.29 175.35 292.49 176.55C293.69 177.75 295.44 178.35 297.74 178.35C301.74 178.35 306.04 176.95 310.64 174.15C315.24 171.25 319.49 167.7 323.39 163.5C327.39 159.2 330.49 154.95 332.69 150.75C334.19 151.35 334.94 152.35 334.94 153.75C334.94 154.75 334.74 155.8 334.34 156.9C333.94 157.9 333.69 158.55 333.59 158.85C331.69 163.35 328.39 167.8 323.69 172.2C319.09 176.6 313.89 180.2 308.09 183C302.39 185.7 297.09 187.05 292.19 187.05ZM295.49 107.4C293.09 107.4 291.24 106.7 289.94 105.3C288.74 103.9 288.14 102 288.14 99.6C288.14 96.5 289.04 93.9 290.84 91.8C292.64 89.7 295.09 88.65 298.19 88.65C300.59 88.65 302.44 89.3 303.74 90.6C305.04 91.9 305.69 93.75 305.69 96.15C305.69 99.25 304.74 101.9 302.84 104.1C300.94 106.3 298.49 107.4 295.49 107.4ZM473.019 196.65C475.119 196.65 476.769 197.45 477.969 199.05C479.169 200.65 479.769 202.8 479.769 205.5C479.769 210.2 477.969 214.3 474.369 217.8C470.869 221.4 466.169 224.15 460.269 226.05C454.469 227.95 448.269 228.9 441.669 228.9C433.269 228.9 424.669 227.4 415.869 224.4C407.169 221.4 398.969 217.75 391.269 213.45C383.669 209.25 374.069 203.55 362.469 196.35C355.169 191.75 349.169 188.05 344.469 185.25C341.269 183.35 338.769 182.4 336.969 182.4C335.669 182.4 334.419 182.75 333.219 183.45C332.119 184.15 330.519 185.45 328.419 187.35C327.019 187.35 325.169 186.75 322.869 185.55C320.669 184.25 319.569 183.3 319.569 182.7C329.669 174.7 338.119 167.45 344.919 160.95C351.819 154.35 358.369 147.25 364.569 139.65C358.769 143.45 352.669 145.35 346.269 145.35C341.069 145.35 337.169 144.15 334.569 141.75C331.969 139.25 330.669 136.2 330.669 132.6C330.669 129.5 331.619 127.1 333.519 125.4C335.519 123.7 337.969 122.85 340.869 122.85C343.369 122.85 345.419 123.45 347.019 124.65C346.419 125.55 345.919 126.65 345.519 127.95C345.119 129.25 344.919 130.5 344.919 131.7C344.919 135.7 347.469 137.7 352.569 137.7C360.069 137.7 367.769 133.1 375.669 123.9C377.269 123.9 378.919 124.55 380.619 125.85C382.419 127.05 383.319 128.4 383.319 129.9C383.319 131.1 382.619 132.55 381.219 134.25C368.819 150.05 356.969 163.15 345.669 173.55C359.769 182.85 372.219 190.6 383.019 196.8C393.819 203 404.319 208.05 414.519 211.95C424.819 215.85 434.219 217.8 442.719 217.8C450.919 217.8 457.419 215.95 462.219 212.25C467.019 208.65 470.619 203.45 473.019 196.65Z"/></g><defs><linearGradient id="paint0_linear" x1="155" x2="-30" y1="-89" y2="570" gradientUnits="userSpaceOnUse"><stop stop-color="#F9C567"/><stop offset="1" stop-color="#F36F40"/></linearGradient><clipPath id="clip0"><rect width="492" height="236" fill="#fff"/></clipPath></defs></svg>